<?xml version="1.0" encoding="utf-8"?>
<!-- Generator: Adobe Illustrator 12.0.0, SVG Export Plug-In . SVG Version: 6.00 Build 51448)  -->
<!DOCTYPE svg PUBLIC "-//W3C//DTD SVG 1.1//EN" "http://www.w3.org/Graphics/SVG/1.1/DTD/svg11.dtd" [
	<!ENTITY ns_svg "http://www.w3.org/2000/svg">
	<!ENTITY ns_xlink "http://www.w3.org/1999/xlink">
]>
<svg  version="1.1" id="Layer_1" xmlns="&ns_svg;" xmlns:xlink="&ns_xlink;" width="299.386" height="40.462"
	 viewBox="0 0 299.386 40.462" overflow="visible" enable-background="new 0 0 299.386 40.462" xml:space="preserve">
<g>
	<path fill="none" d="M245.309,16.357c-0.995-0.582-2.07-0.872-3.23-0.872c-1.147,0-2.226,0.291-3.224,0.872
		c-1.005,0.583-1.798,1.38-2.375,2.385c-0.585,1.007-0.874,2.095-0.874,3.259c0,1.233,0.305,2.345,0.917,3.335
		c0.618,0.989,1.425,1.764,2.423,2.313c0.999,0.55,2.047,0.828,3.133,0.828c1.145,0,2.218-0.294,3.214-0.882
		c1.008-0.582,1.799-1.374,2.377-2.368c0.585-0.995,0.873-2.069,0.873-3.226c0-1.185-0.288-2.277-0.873-3.273
		C247.091,17.731,246.304,16.94,245.309,16.357z"/>
	<path fill="none" d="M291.854,16.326c-1.057-0.559-2.215-0.841-3.47-0.841c-1.261,0-2.371,0.329-3.322,0.988
		c-0.95,0.659-1.679,1.472-2.182,2.441c-0.502,0.971-0.752,1.912-0.752,2.825c0,1.079,0.256,2.141,0.771,3.179
		c0.514,1.039,1.256,1.894,2.236,2.558c0.979,0.665,2.119,1.001,3.418,1.001c1.303,0,2.471-0.304,3.509-0.919
		c1.033-0.607,1.834-1.42,2.404-2.436c0.57-1.014,0.854-2.109,0.854-3.288c0-1.158-0.311-2.225-0.937-3.202
		C293.756,17.657,292.916,16.887,291.854,16.326z"/>
	<path fill="#AC2929" d="M92.905,28.34c-1.535,0-2.919-0.317-4.152-0.951c-1.235-0.636-2.276-1.507-3.123-2.615
		c-0.847-1.108-1.489-2.367-1.925-3.771c-0.436-1.405-0.652-2.873-0.652-4.399c0-2.162,0.514-4.063,1.547-5.705
		c1.032-1.644,2.393-2.902,4.083-3.775c1.693-0.876,3.497-1.313,5.414-1.313c2.601,0,4.773,0.982,6.516,2.95l2.781-2.699
		c-1.429-1.325-2.838-2.297-4.229-2.919c-1.392-0.62-2.967-0.931-4.723-0.931c-2.19,0-4.237,0.347-6.144,1.042
		c-1.908,0.693-3.577,1.678-5.005,2.959c-1.43,1.279-2.542,2.797-3.337,4.555c-0.795,1.758-1.192,3.662-1.192,5.71
		c0,1.84,0.292,3.667,0.878,5.48c0.585,1.815,1.482,3.479,2.689,4.992c1.205,1.511,2.749,2.722,4.628,3.625
		c1.879,0.908,4.046,1.361,6.5,1.361c4.42,0,8.033-1.709,10.837-5.137l-2.783-2.269C99.316,27.068,96.448,28.34,92.905,28.34z"/>
	<polygon fill="#AC2929" points="134.755,2.211 125.497,22.898 116.251,2.211 107.77,31.339 111.839,31.339 117.108,13.13 
		125.497,31.937 133.897,13.13 139.169,31.339 143.238,31.339 	"/>
	<polygon fill="#AC2929" points="147.182,31.339 151.251,31.339 151.251,17.67 164.574,17.67 164.574,14.072 151.251,14.072 
		151.251,6.407 164.701,6.407 164.701,2.807 147.182,2.807 	"/>
	<path fill="#AC2929" d="M198.715,19.857h10.5c-0.165,1.596-0.691,3.038-1.579,4.328c-0.884,1.292-2.062,2.306-3.524,3.049
		c-1.462,0.737-3.104,1.105-4.925,1.105c-2.176,0-4.107-0.508-5.784-1.528c-1.683-1.018-2.978-2.39-3.894-4.106
		c-0.912-1.718-1.366-3.581-1.366-5.59c0-1.492,0.251-2.917,0.764-4.276c0.506-1.359,1.248-2.571,2.226-3.631
		c0.975-1.059,2.153-1.892,3.538-2.494c1.376-0.603,2.882-0.904,4.517-0.904c3.128,0,5.784,1.112,7.971,3.335l3.087-2.394
		c-3.178-3.026-6.842-4.54-11.009-4.54c-2.235,0-4.312,0.405-6.223,1.218c-1.913,0.814-3.547,1.921-4.914,3.332
		c-1.367,1.41-2.423,3.009-3.171,4.802c-0.743,1.793-1.12,3.629-1.12,5.513c0,1.575,0.295,3.224,0.877,4.944
		c0.591,1.723,1.504,3.339,2.744,4.846c1.24,1.506,2.856,2.728,4.85,3.667c1.991,0.936,4.307,1.404,6.957,1.404
		c2.558,0,4.771-0.469,6.624-1.404c1.854-0.939,3.34-2.18,4.459-3.716c1.121-1.537,1.946-3.214,2.473-5.024
		c0.53-1.813,0.825-3.658,0.879-5.533h-13.493L198.715,19.857z"/>
	<path fill="#AC2929" d="M221.559,17.115V12.62h-3.819v18.719h3.819V21.186c0.448-1.716,1.212-3.008,2.291-3.876
		c1.078-0.867,2.284-1.301,3.615-1.301h1.29v-3.86h-1.119C225.608,12.148,223.58,13.804,221.559,17.115z"/>
	<path fill="#AC2929" d="M247.417,13.45c-1.622-0.869-3.397-1.302-5.339-1.302c-2.21,0-4.118,0.5-5.72,1.502
		c-1.604,0.999-2.816,2.261-3.636,3.787c-0.819,1.524-1.229,3.044-1.229,4.564c0,1.507,0.409,3.02,1.223,4.541
		c0.818,1.517,2.03,2.776,3.638,3.776c1.605,0.995,3.514,1.494,5.724,1.494c1.957,0,3.735-0.438,5.36-1.305
		c1.617-0.866,2.885-2.05,3.816-3.548c0.934-1.5,1.4-3.153,1.4-4.959c0-1.827-0.467-3.492-1.405-4.994
		C250.318,15.504,249.04,14.319,247.417,13.45z M247.669,25.227c-0.578,0.994-1.369,1.786-2.377,2.368
		c-0.996,0.588-2.069,0.882-3.214,0.882c-1.086,0-2.134-0.278-3.133-0.828c-0.998-0.549-1.805-1.323-2.423-2.313
		c-0.612-0.99-0.917-2.102-0.917-3.335c0-1.164,0.289-2.251,0.874-3.259c0.577-1.005,1.37-1.802,2.375-2.385
		c0.998-0.582,2.076-0.872,3.224-0.872c1.16,0,2.235,0.291,3.23,0.872c0.995,0.583,1.782,1.375,2.36,2.371
		c0.585,0.996,0.873,2.088,0.873,3.273C248.542,23.157,248.254,24.231,247.669,25.227z"/>
	<path fill="#AC2929" d="M269.913,22.857c0,1.027-0.239,1.968-0.72,2.824c-0.471,0.86-1.119,1.537-1.934,2.041
		c-0.817,0.501-1.699,0.754-2.656,0.754c-0.962,0-1.874-0.341-2.733-1.016c-0.857-0.677-1.288-1.868-1.288-3.576V12.62h-3.861
		v12.257c0,1.722,0.372,3.1,1.104,4.131c0.735,1.033,1.665,1.759,2.794,2.176c1.13,0.418,2.329,0.629,3.599,0.629
		c1.719,0,3.016-0.469,3.896-1.402c0.878-0.934,1.477-1.926,1.799-2.97v3.898h3.858V12.62h-3.858V22.857z"/>
	<path fill="#AC2929" d="M298.66,18.188c-0.481-1.169-1.161-2.208-2.041-3.116c-0.875-0.911-1.905-1.625-3.1-2.145
		c-1.19-0.519-2.463-0.78-3.81-0.78c-1.448,0-2.832,0.279-4.145,0.835c-1.314,0.562-2.459,1.391-3.438,2.502V12.62h-3.814v27.842
		h3.814V28.477c1.993,2.222,4.422,3.336,7.279,3.336c1.91,0,3.635-0.464,5.164-1.393c1.532-0.928,2.714-2.157,3.555-3.691
		c0.84-1.534,1.26-3.167,1.26-4.895C299.386,20.572,299.144,19.356,298.66,18.188z M294.466,25.122
		c-0.57,1.016-1.371,1.828-2.404,2.436c-1.038,0.615-2.206,0.919-3.509,0.919c-1.299,0-2.438-0.336-3.418-1.001
		c-0.98-0.664-1.723-1.519-2.236-2.558c-0.515-1.038-0.771-2.1-0.771-3.179c0-0.914,0.25-1.854,0.752-2.825
		c0.503-0.969,1.231-1.782,2.182-2.441c0.951-0.659,2.062-0.988,3.322-0.988c1.255,0,2.413,0.282,3.47,0.841
		c1.063,0.561,1.902,1.331,2.529,2.306c0.626,0.977,0.937,2.044,0.937,3.202C295.319,23.013,295.036,24.108,294.466,25.122z"/>
</g>
<g>
	<path fill="none" d="M56.718,36.94c0.137,0.081,0.29,0.122,0.467,0.122c0.134,0,0.254-0.025,0.363-0.072
		c0.112-0.046,0.205-0.112,0.285-0.198c0.079-0.085,0.139-0.181,0.179-0.292c0.043-0.107,0.062-0.221,0.062-0.345
		c0-0.121-0.019-0.238-0.062-0.346c-0.041-0.113-0.101-0.211-0.179-0.294c-0.08-0.088-0.173-0.154-0.282-0.201
		c-0.112-0.046-0.231-0.071-0.366-0.071c-0.132,0-0.251,0.025-0.365,0.071c-0.11,0.051-0.206,0.119-0.284,0.201
		c-0.08,0.088-0.139,0.187-0.182,0.294c-0.042,0.11-0.062,0.225-0.062,0.346c0,0.162,0.036,0.312,0.112,0.454
		C56.479,36.746,56.583,36.856,56.718,36.94z"/>
	<path fill="none" d="M61.527,35.294h-0.37v0.753h0.366c0.096,0,0.183-0.016,0.254-0.043s0.126-0.071,0.17-0.127
		c0.042-0.063,0.06-0.135,0.06-0.222C62.008,35.412,61.849,35.294,61.527,35.294z"/>
	<path fill="none" d="M29.127,35.877c0.042-0.063,0.063-0.135,0.063-0.222c0-0.243-0.161-0.361-0.482-0.361h-0.371v0.753h0.367
		c0.098,0,0.181-0.016,0.253-0.043C29.029,35.977,29.086,35.933,29.127,35.877z"/>
	<polygon fill="none" points="44.212,35.69 43.849,36.396 44.578,36.396 	"/>
	<path fill="none" d="M9.341,35.294H8.97v0.753h0.367c0.097,0,0.182-0.016,0.252-0.043c0.074-0.027,0.129-0.071,0.171-0.127
		c0.042-0.063,0.061-0.135,0.061-0.222C9.821,35.412,9.662,35.294,9.341,35.294z"/>
	<polygon fill="#5B5F62" points="1.841,35.294 1.841,35 0.425,35 0.425,37.303 0.757,37.303 0.757,36.202 1.832,36.202 
		1.832,35.907 0.757,35.907 0.757,35.294 	"/>
	<path fill="#5B5F62" d="M4.284,35v1.373c0,0.195,0.029,0.362,0.089,0.493c0.062,0.13,0.14,0.232,0.238,0.301
		c0.098,0.074,0.2,0.123,0.306,0.148c0.109,0.026,0.217,0.037,0.328,0.037c0.274,0,0.481-0.059,0.622-0.17
		c0.143-0.115,0.234-0.242,0.273-0.385c0.04-0.143,0.061-0.286,0.061-0.425V35H5.871v1.383c0,0.192-0.043,0.355-0.125,0.483
		c-0.085,0.13-0.254,0.196-0.505,0.196c-0.172,0-0.306-0.035-0.398-0.105c-0.095-0.069-0.157-0.152-0.187-0.25
		c-0.029-0.104-0.044-0.211-0.044-0.324V35H4.284z"/>
	<path fill="#5B5F62" d="M10.082,36.007c0.061-0.103,0.089-0.22,0.089-0.356c0-0.135-0.031-0.254-0.094-0.352
		c-0.064-0.098-0.152-0.173-0.263-0.222C9.703,35.026,9.578,35,9.438,35H8.642v2.303H8.97v-0.968h0.146l0.843,0.968h0.406
		l-0.851-0.971c0.12-0.007,0.228-0.037,0.331-0.092C9.942,36.187,10.023,36.108,10.082,36.007z M9.761,35.877
		c-0.042,0.056-0.098,0.1-0.171,0.127c-0.07,0.027-0.156,0.043-0.252,0.043H8.97v-0.753h0.371c0.321,0,0.48,0.118,0.48,0.361
		C9.821,35.742,9.803,35.814,9.761,35.877z"/>
	<polygon fill="#5B5F62" points="14.625,37.353 14.625,35 14.333,35 14.333,36.611 12.757,34.952 12.757,37.303 13.05,37.303 
		13.05,35.684 	"/>
	<rect x="17.064" y="35" fill="#5B5F62" width="0.33" height="2.303"/>
	<polygon fill="#5B5F62" points="20.686,37.303 20.686,35.294 21.268,35.294 21.268,35 19.777,35 19.777,35.294 20.359,35.294 
		20.359,37.303 	"/>
	<path fill="#5B5F62" d="M25.239,36.383c0,0.192-0.042,0.355-0.125,0.483c-0.085,0.13-0.253,0.196-0.504,0.196
		c-0.173,0-0.307-0.035-0.4-0.105c-0.096-0.069-0.156-0.152-0.185-0.25c-0.031-0.104-0.044-0.211-0.044-0.324V35h-0.329v1.373
		c0,0.195,0.029,0.362,0.091,0.493c0.059,0.13,0.138,0.232,0.236,0.301c0.098,0.074,0.2,0.123,0.306,0.148
		c0.108,0.026,0.216,0.037,0.328,0.037c0.272,0,0.48-0.059,0.621-0.17c0.142-0.115,0.233-0.242,0.273-0.385
		c0.042-0.143,0.061-0.286,0.061-0.425V35h-0.329V36.383z"/>
	<path fill="#5B5F62" d="M29.212,36.24c0.101-0.054,0.18-0.132,0.237-0.233c0.061-0.103,0.088-0.22,0.088-0.356
		c0-0.135-0.03-0.254-0.093-0.352c-0.065-0.098-0.152-0.173-0.263-0.222C29.069,35.026,28.945,35,28.805,35h-0.795v2.303h0.329
		v-0.968h0.145l0.842,0.968h0.408l-0.852-0.971C29,36.325,29.11,36.295,29.212,36.24z M28.338,36.047v-0.753h0.371
		c0.321,0,0.482,0.118,0.482,0.361c0,0.087-0.022,0.159-0.063,0.222c-0.041,0.056-0.098,0.1-0.169,0.127
		c-0.072,0.027-0.155,0.043-0.253,0.043H28.338z"/>
	<polygon fill="#5B5F62" points="33.541,35.289 33.541,35 32.126,35 32.126,37.303 33.541,37.303 33.541,37.016 32.455,37.016 
		32.455,36.202 33.541,36.202 33.541,35.913 32.455,35.913 32.455,35.289 	"/>
	<polygon fill="#5B5F62" points="40.687,35.294 40.687,35 39.272,35 39.272,37.303 39.601,37.303 39.601,36.202 40.676,36.202 
		40.676,35.907 39.601,35.907 39.601,35.294 	"/>
	<path fill="#5B5F62" d="M44.693,36.687l0.298,0.616h0.355l-1.134-2.351l-1.131,2.351h0.357l0.299-0.616H44.693z M44.212,35.69
		l0.366,0.705h-0.729L44.212,35.69z"/>
	<path fill="#5B5F62" d="M48.502,35.35c0.138-0.071,0.282-0.106,0.438-0.106c0.208,0,0.384,0.077,0.524,0.236l0.226-0.217
		c-0.116-0.108-0.23-0.186-0.342-0.236c-0.113-0.05-0.24-0.074-0.383-0.074c-0.173,0-0.34,0.027-0.495,0.084
		c-0.153,0.056-0.288,0.133-0.405,0.242c-0.115,0.102-0.204,0.223-0.27,0.366c-0.062,0.14-0.095,0.294-0.095,0.459
		c0,0.149,0.025,0.297,0.07,0.443c0.048,0.145,0.119,0.279,0.218,0.403c0.096,0.123,0.221,0.221,0.373,0.294
		c0.152,0.071,0.329,0.108,0.526,0.108c0.356,0,0.647-0.138,0.876-0.412l-0.226-0.187c-0.176,0.206-0.407,0.309-0.695,0.309
		c-0.124,0-0.236-0.025-0.336-0.077c-0.099-0.052-0.183-0.123-0.251-0.212c-0.067-0.09-0.12-0.189-0.155-0.304
		c-0.036-0.112-0.053-0.232-0.053-0.355c0-0.176,0.04-0.324,0.124-0.459S48.366,35.418,48.502,35.35z"/>
	<polygon fill="#5B5F62" points="53.017,37.303 53.017,35.294 53.6,35.294 53.6,35 52.108,35 52.108,35.294 52.688,35.294 
		52.688,37.303 	"/>
	<path fill="#5B5F62" d="M56.687,37.254c0.153,0.064,0.321,0.099,0.504,0.099c0.177,0,0.34-0.034,0.492-0.099
		c0.153-0.067,0.284-0.155,0.396-0.269c0.11-0.113,0.196-0.242,0.254-0.386c0.063-0.146,0.091-0.295,0.091-0.45
		c0-0.148-0.028-0.298-0.091-0.443c-0.058-0.144-0.146-0.275-0.256-0.386c-0.111-0.116-0.242-0.204-0.394-0.269
		c-0.152-0.068-0.315-0.1-0.492-0.1c-0.183,0-0.349,0.031-0.502,0.1c-0.156,0.064-0.287,0.155-0.397,0.269
		c-0.112,0.113-0.199,0.242-0.256,0.386c-0.063,0.148-0.092,0.295-0.092,0.443c0,0.155,0.029,0.3,0.089,0.447
		c0.059,0.146,0.144,0.272,0.257,0.389C56.399,37.099,56.533,37.187,56.687,37.254z M56.355,35.81
		c0.042-0.107,0.102-0.206,0.182-0.294c0.078-0.082,0.173-0.15,0.284-0.201c0.113-0.046,0.232-0.071,0.365-0.071
		c0.134,0,0.254,0.025,0.366,0.071c0.109,0.047,0.202,0.113,0.282,0.201c0.079,0.083,0.139,0.181,0.179,0.294
		c0.043,0.107,0.062,0.225,0.062,0.346c0,0.124-0.019,0.237-0.062,0.345c-0.041,0.111-0.101,0.207-0.179,0.292
		c-0.08,0.086-0.173,0.152-0.285,0.198c-0.109,0.047-0.229,0.072-0.363,0.072c-0.177,0-0.33-0.041-0.467-0.122
		c-0.135-0.084-0.239-0.194-0.313-0.331c-0.076-0.143-0.112-0.292-0.112-0.454C56.293,36.034,56.313,35.92,56.355,35.81z"/>
	<path fill="#5B5F62" d="M62.269,36.007c0.061-0.103,0.09-0.22,0.09-0.356c0-0.135-0.034-0.254-0.097-0.352
		c-0.063-0.098-0.15-0.173-0.262-0.222C61.89,35.026,61.765,35,61.624,35h-0.796v2.303h0.33v-0.968h0.144l0.842,0.968h0.409
		l-0.851-0.971c0.119-0.007,0.228-0.037,0.331-0.092C62.13,36.187,62.21,36.108,62.269,36.007z M61.948,35.877
		c-0.044,0.056-0.099,0.1-0.17,0.127s-0.159,0.043-0.254,0.043h-0.366v-0.753h0.37c0.322,0,0.481,0.118,0.481,0.361
		C62.008,35.742,61.99,35.814,61.948,35.877z"/>
	<polygon fill="#5B5F62" points="65.855,36.243 65.217,35 64.859,35 65.693,36.553 65.693,37.303 66.022,37.303 66.022,36.553 
		66.855,35 66.499,35 	"/>
</g>
<g>
	<path fill="#F79149" d="M39.114,25.111c1.091-0.036,2.322-0.075,3.666-0.106c1.346-0.038,2.801-0.074,4.338-0.097
		c1.543-0.031,3.166-0.068,4.847-0.078c0.838-0.011,1.693-0.021,2.558-0.031c0.431-0.002,0.865-0.008,1.303-0.016h0.329l0.306-0.005
		c0.204-0.013,0.408-0.027,0.607-0.057c0.799-0.108,1.573-0.382,2.112-0.882c0.549-0.492,0.8-1.212,0.705-1.943
		c-0.083-0.732-0.484-1.448-1.043-2.019c-0.56-0.574-1.264-1.022-2.022-1.346c-0.756-0.325-1.567-0.539-2.381-0.67
		c-0.41-0.065-0.824-0.104-1.229-0.128c-0.197-0.013-0.41-0.018-0.62-0.022c-0.213-0.005-0.419-0.01-0.63-0.013
		c-1.68-0.026-3.306-0.074-4.844-0.111c-1.544-0.043-2.999-0.12-4.342-0.181c-1.342-0.06-2.57-0.131-3.661-0.192
		c-1.09-0.063-2.041-0.098-2.826-0.14c-0.768-0.036-1.373-0.076-1.792-0.098V25.3c0.419-0.021,1.025-0.057,1.792-0.083
		C37.07,25.187,38.021,25.152,39.114,25.111z"/>
	<path fill="#F79149" d="M66.715,0H34.493v1.171c0.216,0.012,0.463,0.027,0.739,0.042c0.478,0.031,1.035,0.067,1.631,0.107
		c0.596,0.042,1.234,0.09,1.871,0.153c0.318,0.027,0.64,0.071,0.95,0.104c0.315,0.048,0.624,0.083,0.92,0.144
		c0.299,0.047,0.584,0.12,0.854,0.187c0.133,0.041,0.261,0.083,0.386,0.121c0.126,0.046,0.242,0.099,0.354,0.147
		c0.112,0.049,0.21,0.116,0.308,0.167c0.096,0.057,0.177,0.127,0.258,0.187c0.147,0.131,0.266,0.257,0.343,0.375
		c0.089,0.112,0.136,0.21,0.172,0.276c0.036,0.063,0.054,0.099,0.054,0.099s-0.022-0.033-0.066-0.093
		c-0.042-0.061-0.099-0.157-0.196-0.253c-0.088-0.104-0.219-0.213-0.372-0.321c-0.082-0.048-0.165-0.104-0.261-0.149
		c-0.098-0.039-0.196-0.089-0.307-0.125c-0.113-0.032-0.227-0.07-0.348-0.101c-0.124-0.023-0.251-0.049-0.383-0.075
		c-0.266-0.036-0.546-0.073-0.839-0.087c-0.293-0.026-0.601-0.026-0.909-0.038c-0.313,0.001-0.626-0.006-0.943,0.003
		c-0.633,0.009-1.265,0.029-1.858,0.056c-0.594,0.027-1.149,0.053-1.625,0.076c-0.273,0.013-0.518,0.027-0.733,0.039v14.698
		c0.419-0.013,1.025-0.042,1.793-0.062c0.785-0.019,1.736-0.067,2.828-0.067c1.094-0.013,2.328-0.023,3.674-0.024
		c0.379-0.003,0.771-0.004,1.169-0.004c-0.143-0.207-0.27-0.487-0.361-0.816c-0.155-0.534-0.268-1.195-0.354-1.952
		c-0.088-0.757-0.157-1.612-0.205-2.543c-0.054-0.932-0.099-1.941-0.127-3.008c-0.013-0.534-0.028-1.082-0.043-1.643
		c0.001-0.288-0.01-0.581,0.017-0.879c0.01-0.149,0.018-0.298,0.031-0.449c0.02-0.15,0.041-0.303,0.059-0.456
		c0.096-0.608,0.249-1.242,0.57-1.849c0.082-0.152,0.164-0.303,0.276-0.442l0.158-0.214l0.186-0.195
		c0.249-0.259,0.553-0.463,0.866-0.637c0.642-0.321,1.327-0.453,1.981-0.508c0.661-0.054,1.305-0.036,1.938,0.006
		c1.268,0.099,2.495,0.276,3.701,0.419c0.602,0.067,1.198,0.136,1.788,0.203c0.585,0.057,1.172,0.108,1.738,0.14
		c0.141,0.005,0.282,0.013,0.421,0.023c0.146,0.001,0.289,0.006,0.431,0.011c0.142,0.006,0.287,0.006,0.423,0.014
		c0.146,0.006,0.292,0.014,0.436,0.022c0.287,0.007,0.577,0.054,0.858,0.079c0.142,0.021,0.284,0.048,0.424,0.071l0.208,0.036
		l0.208,0.053c0.551,0.131,1.098,0.327,1.56,0.678c0.11,0.096,0.222,0.189,0.323,0.291l0.14,0.168
		c0.046,0.055,0.089,0.111,0.122,0.174c0.076,0.124,0.15,0.246,0.195,0.379c0.023,0.065,0.05,0.129,0.07,0.196
		c0.017,0.066,0.029,0.13,0.044,0.195c0.107,0.531,0.043,1.021-0.064,1.454c-0.112,0.434-0.265,0.819-0.417,1.171
		c-0.313,0.708-0.651,1.278-0.915,1.751c-0.264,0.475-0.469,0.846-0.577,1.113c-0.028,0.067-0.046,0.128-0.063,0.178
		c-0.017,0.053-0.032,0.096-0.036,0.135c-0.014,0.076-0.018,0.113-0.018,0.113s0-0.039,0.001-0.113
		c-0.001-0.039,0.005-0.085,0.014-0.141c0.009-0.056,0.022-0.12,0.042-0.191c0.072-0.285,0.222-0.691,0.434-1.191
		c0.21-0.502,0.473-1.105,0.712-1.808c0.118-0.351,0.225-0.728,0.287-1.125c0.06-0.395,0.079-0.814-0.031-1.194
		c-0.108-0.379-0.342-0.706-0.702-0.936c-0.358-0.232-0.812-0.384-1.302-0.468c-0.98-0.207-2.072-0.107-3.265-0.141
		c-1.185-0.028-2.394-0.112-3.614-0.25c-1.22-0.13-2.446-0.296-3.656-0.375c-0.602-0.044-1.199-0.067-1.77-0.026
		c-0.57,0.042-1.116,0.151-1.573,0.374c-0.45,0.232-0.799,0.577-1.057,1.021c-0.255,0.442-0.409,0.967-0.508,1.5
		c-0.021,0.135-0.043,0.27-0.064,0.404c-0.017,0.137-0.028,0.272-0.04,0.408c-0.034,0.27-0.034,0.546-0.053,0.815
		c-0.015,0.557-0.029,1.104-0.044,1.634c-0.023,1.063-0.049,2.07-0.07,2.997c-0.014,0.929-0.028,1.777-0.014,2.526
		c0.02,0.75,0.049,1.404,0.14,1.928c0.062,0.357,0.155,0.654,0.276,0.867c0.966-0.004,1.978-0.006,3.033-0.01
		c1.539-0.017,3.162-0.041,4.835-0.041c0.215,0,0.425-0.002,0.641-0.002c0.209,0,0.422,0,0.651,0.01
		c0.445,0.016,0.889,0.049,1.336,0.109c0.893,0.121,1.796,0.339,2.661,0.707c0.862,0.363,1.695,0.874,2.389,1.575
		c0.69,0.694,1.242,1.608,1.376,2.663c0.061,0.526,0.005,1.079-0.183,1.587c-0.187,0.508-0.508,0.962-0.897,1.315
		c-0.389,0.354-0.845,0.611-1.306,0.797c-0.465,0.184-0.942,0.285-1.416,0.35c-0.237,0.032-0.474,0.05-0.708,0.058l-0.351,0.01
		l-0.329-0.005c-0.438-0.005-0.872-0.01-1.303-0.013c-0.865-0.013-1.72-0.021-2.558-0.028c-1.681-0.017-3.303-0.049-4.847-0.078
		c-1.537-0.025-2.992-0.062-4.338-0.098c-1.344-0.031-2.575-0.072-3.666-0.108c-1.093-0.041-2.044-0.074-2.829-0.103
		c-0.767-0.031-1.373-0.063-1.792-0.083v2.646c0.175-0.015,0.38-0.032,0.617-0.052c0.408-0.031,0.908-0.072,1.479-0.103
		c0.572-0.036,1.218-0.078,1.918-0.108c0.704-0.037,1.466-0.072,2.272-0.104c0.806-0.027,1.653-0.056,2.533-0.078
		c0.879-0.02,1.787-0.035,2.709-0.046c0.923-0.01,1.861-0.013,2.797-0.018c0.939,0.005,1.874,0.005,2.798,0.018
		c0.922,0.011,1.831,0.026,2.709,0.046l0.083,0.006l0.098,0.005l0.162,0.005l0.164,0.015l0.176,0.018
		c0.123,0.016,0.244,0.025,0.356,0.046c0.115,0.023,0.227,0.046,0.337,0.066c0.443,0.104,0.869,0.249,1.261,0.428
		c0.789,0.366,1.443,0.903,1.899,1.517c0.225,0.31,0.407,0.644,0.505,0.988c0.098,0.345,0.116,0.707,0.028,1.028
		c-0.086,0.325-0.282,0.589-0.499,0.756c-0.214,0.176-0.45,0.261-0.653,0.328c-0.414,0.118-0.747,0.104-0.967,0.108
		c-0.221-0.015-0.337-0.021-0.337-0.021s0.115-0.017,0.335-0.048c0.107-0.015,0.238-0.043,0.391-0.076
		c0.075-0.024,0.153-0.05,0.24-0.074c0.083-0.026,0.167-0.068,0.26-0.104c0.352-0.158,0.74-0.482,0.806-0.962
		c0.066-0.475-0.188-1.039-0.618-1.512c-0.432-0.475-1.031-0.876-1.726-1.141c-0.35-0.133-0.718-0.231-1.103-0.296
		c-0.197-0.025-0.388-0.051-0.58-0.062c-0.173-0.018-0.439-0.01-0.619-0.008c-0.879,0.021-1.788,0.036-2.709,0.047
		c-0.925,0.011-1.859,0.013-2.798,0.016c-0.936-0.003-1.874-0.005-2.797-0.016s-1.83-0.028-2.709-0.049
		c-0.88-0.019-1.728-0.05-2.533-0.078c-0.806-0.028-1.568-0.064-2.272-0.1c-0.701-0.031-1.347-0.073-1.918-0.109
		c-0.57-0.03-1.07-0.072-1.479-0.103c-0.237-0.019-0.442-0.037-0.617-0.052v4.941h32.222c0.269,0,0.509-0.201,0.558-0.469
		c0.006-0.033,0.008-0.068,0.008-0.099V0.569C67.28,0.256,67.028,0,66.715,0z M66.13,17.341c-0.05,1.146-0.126,2.284-0.191,3.4
		c-0.074,1.114-0.149,2.208-0.183,3.264c-0.006,0.264-0.015,0.526-0.022,0.784c-0.008,0.264-0.018,0.536-0.04,0.799
		c-0.041,0.531-0.115,1.056-0.246,1.563c-0.137,0.504-0.334,1.006-0.672,1.424c-0.329,0.424-0.823,0.715-1.303,0.805
		c-0.479,0.103-0.926,0.062-1.327-0.01c-0.402-0.078-0.765-0.187-1.096-0.297c-0.67-0.219-1.226-0.456-1.694-0.619
		c-0.465-0.165-0.836-0.275-1.1-0.327c-0.259-0.05-0.405-0.058-0.405-0.058s0.037-0.002,0.107-0.005
		c0.068-0.005,0.171-0.005,0.306,0.003c0.27,0.013,0.664,0.064,1.154,0.178c0.487,0.108,1.075,0.268,1.742,0.423
		c0.333,0.077,0.69,0.145,1.057,0.176c0.369,0.03,0.756,0.03,1.105-0.077c0.354-0.099,0.652-0.315,0.868-0.635
		c0.216-0.319,0.363-0.727,0.452-1.171c0.091-0.443,0.132-0.923,0.146-1.418c0.004-0.248,0-0.494-0.007-0.756
		c-0.006-0.26-0.006-0.533-0.006-0.8c0.001-1.074,0.034-2.185,0.078-3.305c0.053-1.12,0.117-2.255,0.15-3.38
		c0.028-1.127,0.065-2.249-0.037-3.319c-0.05-0.532-0.128-1.054-0.271-1.529c-0.139-0.473-0.34-0.899-0.625-1.196
		c-0.286-0.297-0.659-0.464-1.09-0.517c-0.102-0.011-0.22-0.019-0.321-0.021c-0.123,0-0.249,0-0.374,0
		c-0.227,0.004-0.459,0.014-0.682,0.041c-0.444,0.053-0.868,0.156-1.206,0.345c-0.341,0.186-0.606,0.451-0.799,0.772
		c-0.189,0.322-0.315,0.686-0.399,1.047c-0.079,0.361-0.142,0.718-0.178,1.056c-0.076,0.68-0.111,1.283-0.147,1.781
		c-0.063,0.995-0.117,1.563-0.117,1.563s-0.059-0.568-0.131-1.563c-0.038-0.499-0.081-1.104-0.076-1.811
		c0-0.35,0.01-0.73,0.068-1.136c0.053-0.401,0.157-0.835,0.358-1.27c0.204-0.431,0.551-0.857,1.007-1.134
		c0.45-0.292,0.967-0.445,1.481-0.544c0.258-0.046,0.522-0.078,0.796-0.1c0.13-0.007,0.252-0.012,0.38-0.015
		c0.156-0.003,0.293,0,0.445,0.013c0.589,0.043,1.246,0.29,1.712,0.757c0.476,0.46,0.754,1.043,0.938,1.612
		c0.18,0.578,0.272,1.16,0.335,1.74c0.058,0.582,0.083,1.161,0.089,1.738C66.165,16.189,66.155,16.768,66.13,17.341z"/>
	<path fill="#10B05F" d="M7.485,5.833l0.468-0.004c0.397-0.002,0.795-0.006,1.194-0.006l2.39,0.02
		c0.398,0.002,0.797,0.001,1.195,0.013l1.194,0.026l1.195,0.025c0.207,0.006,0.415,0.014,0.623,0.02l-0.096-0.379
		c-0.08-0.321-0.161-0.643-0.235-0.965l-0.456-1.939L14.739,1.67c-0.071-0.322-0.146-0.646-0.212-0.974
		C14.478,0.465,14.431,0.233,14.382,0H8.999L8.807,0.771C8.644,1.413,8.49,2.059,8.318,2.702L7.812,4.623
		C7.707,5.027,7.597,5.431,7.485,5.833z"/>
	<path fill="#10B05F" d="M13.418,8.347c-0.008-0.068-0.027-0.143-0.054-0.225c-0.053-0.163-0.134-0.362-0.284-0.546
		c-0.142-0.189-0.346-0.372-0.597-0.498c-0.127-0.062-0.262-0.112-0.407-0.143c-0.178,0.003-0.359,0.003-0.539,0.003l-0.19,0.003
		c-0.206,0.045-0.397,0.126-0.573,0.241c-0.251,0.166-0.456,0.394-0.594,0.647c-0.067,0.13-0.116,0.265-0.153,0.404
		c-0.013,0.07-0.032,0.142-0.036,0.194C9.979,8.463,9.979,8.577,9.975,8.667v0.005l0.001,0.013l0.003,0.028v0.053
		c0,0.034,0.003,0.071,0.009,0.104c0.008,0.073,0.026,0.142,0.038,0.212c0.039,0.138,0.086,0.273,0.154,0.403
		c0.138,0.256,0.341,0.484,0.594,0.651c0.073,0.045,0.153,0.09,0.233,0.129c0.107,0,0.214-0.001,0.319-0.003
		c0.362,0.003,0.725,0.005,1.086,0.006c0.023-0.009,0.049-0.019,0.072-0.031c0.251-0.127,0.457-0.308,0.599-0.497
		c0.148-0.188,0.229-0.385,0.282-0.548c0.027-0.084,0.045-0.158,0.054-0.226c0.012-0.066,0.02-0.123,0.021-0.168
		c0.005-0.092,0.01-0.143,0.01-0.143s-0.005-0.05-0.01-0.143C13.438,8.468,13.43,8.411,13.418,8.347z"/>
	<path fill="#10B05F" d="M7.337,31.421l-0.017-0.657c-0.141,0.003-0.284,0.003-0.425,0.003l-0.619,0.005
		c-0.349-0.005-0.697-0.005-1.045-0.011l-0.017,0.66c-0.014,0.289-0.022,0.578-0.039,0.864c-0.014,0.266-0.032,0.528-0.051,0.787
		h2.304c-0.021-0.259-0.036-0.521-0.052-0.787C7.36,31.999,7.353,31.71,7.337,31.421z"/>
	<path fill="#10B05F" d="M11.42,20.611c-0.011-0.027-0.019-0.06-0.037-0.09c-0.02-0.03-0.043-0.061-0.065-0.093
		c-0.03-0.028-0.063-0.057-0.097-0.086c-0.037-0.023-0.078-0.047-0.123-0.066c-0.09-0.029-0.189-0.05-0.29-0.031
		c-0.02,0.004-0.062,0.005-0.063,0.012c-0.031,0.01-0.057,0.018-0.089,0.028c-0.015,0.004-0.033,0.009-0.043,0.014l-0.027,0.022
		c-0.017,0.013-0.033,0.021-0.049,0.035c-0.077,0.059-0.13,0.135-0.17,0.208c-0.012,0.042-0.035,0.077-0.037,0.115
		c-0.004,0.021-0.012,0.038-0.01,0.059l-0.001,0.028l-0.001,0.014l-0.001,0.008l-0.001,0.003c0.005,0.061,0.011,0.133,0.02,0.134
		c-0.002,0.021,0.021,0.061,0.034,0.101c0.041,0.074,0.093,0.147,0.169,0.206c0.079,0.053,0.17,0.106,0.272,0.113
		c0.066,0.01,0.104,0.004,0.15,0.004c0.047-0.002,0.093-0.024,0.14-0.035c0.045-0.02,0.085-0.042,0.123-0.064
		c0.034-0.029,0.067-0.056,0.096-0.087c0.023-0.032,0.045-0.064,0.066-0.094c0.018-0.03,0.026-0.063,0.037-0.089
		c0.027-0.054,0.021-0.103,0.029-0.135c0.003-0.031,0.007-0.048,0.007-0.048s-0.003-0.018-0.007-0.05
		C11.442,20.717,11.447,20.666,11.42,20.611z"/>
	<path fill="#10B05F" d="M4.163,10.333c1.143-0.016,2.323-0.05,3.525-0.05c0.596-0.003,1.198-0.005,1.802-0.008
		c-0.064-0.068-0.125-0.137-0.182-0.21c-0.15-0.197-0.264-0.421-0.347-0.661c-0.039-0.12-0.075-0.24-0.089-0.367
		C8.862,8.972,8.851,8.91,8.85,8.846L8.844,8.752L8.842,8.704L8.839,8.681V8.669V8.664c0-0.016,0,0.024,0-0.036
		C8.847,8.522,8.844,8.452,8.87,8.296C8.889,8.149,8.923,8.031,8.959,7.91c0.084-0.237,0.2-0.464,0.347-0.66
		c0.081-0.108,0.173-0.207,0.269-0.294L9.147,6.957C8.749,6.958,8.351,6.953,7.954,6.951L6.756,6.943L6.022,6.938l0.204-0.7
		c0.186-0.636,0.371-1.271,0.569-1.905l0.586-1.901c0.192-0.634,0.403-1.262,0.604-1.894L8.159,0H0.57C0.256,0,0,0.256,0,0.569
		v9.863c0.285-0.01,0.572-0.018,0.867-0.024C1.915,10.379,3.02,10.344,4.163,10.333z"/>
	<path fill="#10B05F" d="M30.123,31.421l-0.02-0.657c-0.141,0.003-0.283,0.003-0.424,0.003l-0.619,0.005
		c-0.349-0.005-0.695-0.005-1.044-0.011l-0.017,0.66c-0.014,0.289-0.024,0.578-0.042,0.864c-0.013,0.266-0.031,0.528-0.05,0.787
		h2.305c-0.021-0.259-0.037-0.521-0.051-0.787C30.143,31.999,30.134,31.71,30.123,31.421z"/>
	<path fill="#10B05F" d="M11.42,26.553c-0.011-0.026-0.019-0.057-0.037-0.088c-0.02-0.03-0.043-0.063-0.065-0.095
		c-0.028-0.029-0.063-0.058-0.094-0.085c-0.04-0.026-0.081-0.047-0.124-0.066c-0.091-0.032-0.191-0.054-0.292-0.032
		c-0.02,0.005-0.062,0.008-0.063,0.01c-0.029,0.011-0.057,0.022-0.089,0.032c-0.014,0.005-0.032,0.008-0.043,0.015l-0.027,0.019
		c-0.017,0.013-0.033,0.023-0.049,0.036c-0.077,0.059-0.13,0.137-0.17,0.209c-0.031,0.077-0.047,0.149-0.051,0.227l0,0l0.002,0.025
		l0.003,0.053c0.002,0.043,0.011,0.043,0.014,0.056c-0.002,0.019,0.021,0.062,0.034,0.101c0.041,0.07,0.093,0.146,0.169,0.209
		c0.079,0.047,0.17,0.103,0.272,0.108c0.066,0.01,0.104,0.005,0.149,0.005c0.048,0,0.095-0.025,0.141-0.036
		c0.043-0.018,0.085-0.041,0.123-0.062c0.034-0.031,0.067-0.06,0.096-0.088c0.023-0.036,0.045-0.066,0.066-0.095
		c0.018-0.029,0.026-0.06,0.037-0.091c0.027-0.052,0.021-0.103,0.029-0.135c0.003-0.031,0.007-0.046,0.007-0.046
		s-0.003-0.018-0.007-0.052C11.442,26.659,11.447,26.607,11.42,26.553z"/>
	<path fill="#10B05F" d="M25.214,26.553c-0.011-0.026-0.019-0.057-0.038-0.088c-0.018-0.03-0.042-0.063-0.066-0.095
		c-0.028-0.029-0.062-0.058-0.094-0.085c-0.039-0.026-0.08-0.047-0.123-0.066c-0.091-0.032-0.188-0.054-0.291-0.032
		c-0.02,0.005-0.062,0.008-0.062,0.01c-0.029,0.011-0.061,0.022-0.089,0.032c-0.015,0.005-0.031,0.008-0.045,0.015l-0.025,0.019
		c-0.017,0.013-0.034,0.023-0.051,0.036c-0.076,0.059-0.13,0.137-0.171,0.209c-0.031,0.077-0.048,0.149-0.051,0.227l0,0l0.003,0.025
		l0.003,0.053c0,0.043,0.013,0.043,0.014,0.056c-0.001,0.019,0.021,0.062,0.031,0.101c0.041,0.07,0.095,0.146,0.171,0.209
		c0.076,0.047,0.169,0.103,0.272,0.108c0.065,0.01,0.103,0.005,0.151,0.005c0.047,0,0.093-0.025,0.14-0.036
		c0.043-0.018,0.084-0.041,0.122-0.062c0.033-0.031,0.067-0.06,0.095-0.088c0.024-0.036,0.046-0.066,0.066-0.095
		c0.019-0.029,0.026-0.06,0.038-0.091c0.026-0.052,0.021-0.103,0.03-0.135c0.003-0.031,0.006-0.046,0.006-0.046
		s-0.003-0.018-0.006-0.052C25.235,26.659,25.24,26.607,25.214,26.553z"/>
	<path fill="#10B05F" d="M31.233,24.751l-3.265,0.094l-3.434,0.083l-1.716,0.037l-1.717,0.03l-2.019,0.03
		c-0.003,0.344-0.018,0.677-0.05,0.999c-0.048,0.554-0.137,1.075-0.243,1.549c-0.057,0.233-0.1,0.463-0.165,0.671
		c-0.049,0.155-0.096,0.302-0.141,0.443c0.873,0.016,1.746,0.038,2.618,0.057c1.145,0.026,2.29,0.052,3.433,0.088
		c1.146,0.033,2.29,0.064,3.434,0.107c1.145,0.037,2.289,0.089,3.434,0.135l-0.095-2.253L31.233,24.751z M25.245,26.784
		c-0.006,0.034,0,0.083-0.02,0.14c-0.011,0.062-0.042,0.127-0.079,0.206c-0.024,0.036-0.052,0.073-0.078,0.114
		c-0.034,0.035-0.068,0.077-0.109,0.115c-0.046,0.032-0.089,0.075-0.15,0.102c-0.059,0.03-0.13,0.063-0.183,0.077
		c-0.13,0.04-0.289,0.047-0.451,0.01c-0.16-0.041-0.321-0.131-0.443-0.276c-0.054-0.074-0.108-0.146-0.142-0.265
		c-0.019-0.052-0.037-0.114-0.037-0.14l-0.005-0.049l-0.004-0.026v-0.013l-0.001-0.005l-0.003-0.036
		c0.008-0.199,0.074-0.392,0.194-0.536c0.122-0.145,0.283-0.232,0.443-0.275c0.041-0.014,0.089-0.016,0.131-0.021l0.063-0.008
		c0.018,0,0.032,0.006,0.049,0.006c0.031,0.005,0.06,0.008,0.093,0.01c0.059,0.003,0.077,0.019,0.116,0.026
		c0.133,0.035,0.242,0.108,0.33,0.175c0.041,0.041,0.075,0.082,0.109,0.116c0.026,0.041,0.054,0.08,0.078,0.116
		c0.037,0.078,0.068,0.145,0.079,0.206c0.02,0.057,0.014,0.104,0.02,0.134c0.003,0.034,0.006,0.052,0.006,0.052
		S25.248,26.753,25.245,26.784z"/>
	<path fill="#10B05F" d="M14.604,0c0.076,0.204,0.151,0.406,0.227,0.611c0.114,0.311,0.221,0.626,0.332,0.938l0.33,0.941
		l0.636,1.885c0.108,0.315,0.208,0.631,0.309,0.946l0.306,0.947l0.175,0.545l-0.601,0.02c-0.399,0.013-0.797,0.032-1.196,0.041
		L13.927,6.9l-1.194,0.026c-0.021,0-0.041,0-0.061,0c0.445,0.406,0.636,0.868,0.712,1.188c0.019,0.086,0.036,0.163,0.042,0.23
		c0.01,0.066,0.018,0.124,0.018,0.17c0.003,0.093,0.005,0.143,0.005,0.143s-0.002,0.05-0.005,0.143c0,0.045-0.008,0.102-0.018,0.17
		C13.42,9.037,13.402,9.114,13.384,9.2c-0.068,0.29-0.231,0.698-0.592,1.072c0.729,0.003,1.455,0.007,2.173,0.012
		c0.899,0.001,1.785,0.018,2.655,0.036c0.292,0.003,0.582,0.008,0.872,0.013c1.142,0.014,2.247,0.048,3.295,0.078
		c1.046,0.023,2.037,0.062,2.955,0.096c0.625,0.021,1.214,0.049,1.764,0.074c0.253,0.011,0.498,0.022,0.73,0.034
		c0.743,0.034,1.39,0.074,1.926,0.104c0.53,0.029,0.951,0.063,1.236,0.08c0.287,0.021,0.438,0.031,0.438,0.031
		s-0.152,0.013-0.438,0.033c-0.285,0.02-0.707,0.053-1.236,0.082c-0.536,0.031-1.184,0.071-1.926,0.103
		c-0.1,0.005-0.207,0.009-0.306,0.014c-0.505,0.025-1.043,0.051-1.622,0.072c-0.104,0.005-0.213,0.009-0.32,0.013
		c-0.449,0.021-0.896,0.041-1.347,0.054l-1.798,0.07l-1.798,0.057c-0.677,0.017-1.354,0.039-2.032,0.059
		c-0.455,0.013-0.909,0.024-1.364,0.033c-0.007,0.021-0.02,0.039-0.026,0.061c-0.036,0.102-0.076,0.213-0.124,0.333
		c-0.022,0.09-0.045,0.189-0.069,0.294l0.262,0.002l0.978,0.009l3.201,0.053l0.232,0.003l1.717,0.029l1.716,0.039l2.978,0.068
		l0.456,0.011l3.434,0.103l0.181,0.005l-0.006,0.17l-0.079,2.252l-0.096,2.254c-1.145,0.049-2.29,0.099-3.434,0.138
		c-1.144,0.042-2.288,0.073-3.434,0.107c-1.144,0.036-2.289,0.062-3.433,0.086c-0.207,0.005-0.413,0.009-0.619,0.016
		c-0.381,0.008-0.763,0.016-1.144,0.024c0,0,0,0-0.002,0c-0.385,0.009-0.769,0.016-1.156,0.023c-0.169,0.003-0.34,0.008-0.512,0.01
		l-0.137,0.002c0.07,0.197,0.137,0.395,0.205,0.593l0.531,0.009l1.153,0.02l0,0l0.43,0.006l1.251,0.019l1.717,0.03l1.716,0.037
		l3.434,0.081l3.434,0.103l0.181,0.006l-0.006,0.171l-0.007,0.214l-0.072,2.038l-0.096,2.253c-1.145,0.048-2.29,0.099-3.434,0.135
		c-1.144,0.043-2.288,0.078-3.434,0.108c-1.144,0.036-2.289,0.062-3.433,0.087c-0.695,0.016-1.39,0.031-2.083,0.046
		c0.004,0.038,0.006,0.073,0.009,0.109c0.015,0.181,0.029,0.361,0.039,0.536l2.036,0.031l1.717,0.031l1.716,0.035l3.434,0.083
		l3.434,0.101l0.181,0.008l-0.006,0.17l-0.079,2.249l-0.096,2.253c-1.145,0.049-2.29,0.104-3.434,0.14
		c-1.144,0.041-2.288,0.072-3.434,0.104c-1.144,0.04-2.289,0.065-3.433,0.089c-0.968,0.021-1.939,0.046-2.91,0.064
		c-0.044,0.108-0.089,0.211-0.128,0.307c-0.245,0.503-0.396,0.781-0.396,0.781s0.059-0.316,0.181-0.851
		c0.013-0.072,0.025-0.149,0.04-0.232c-0.073,0-0.147,0.005-0.221,0.005l-3.433,0.058c-1.143,0.021-2.287,0.028-3.432,0.041
		L7.37,29.613l-3.434,0.016l-0.552,0.003l-0.001-0.558l-0.016-4.502L3.366,24l0.57,0.002l6.867,0.023l3.432,0.028l3.433,0.034
		l0.372,0.008c-0.027-0.198-0.052-0.399-0.085-0.605c-0.096,0.005-0.189,0.005-0.287,0.005l-3.433,0.057
		c-1.143,0.023-2.287,0.03-3.432,0.041L7.37,23.628l-3.434,0.016l-0.552,0.003l-0.001-0.555l-0.016-4.504l-0.002-0.572l0.57,0.003
		l6.867,0.023l3.432,0.031l2.381,0.025c-0.052-0.19-0.105-0.378-0.159-0.566l-2.222,0.037c-1.143,0.023-2.287,0.028-3.432,0.041
		L7.37,17.644l-3.434,0.017l-0.552,0.002l-0.001-0.555l-0.016-4.506l-0.002-0.57l0.57,0.001l6.867,0.022l3.432,0.032l0.659,0.006
		l1.213,0.012c0.063-0.139,0.126-0.268,0.184-0.38c0.076-0.115,0.144-0.214,0.205-0.302c-0.017,0.001-0.034,0.001-0.049,0.001
		l-0.776,0.017l-2.821,0.058l-3.6,0.043l-1.8,0.021l-1.798,0.005l-3.065,0.008l-0.054,4.439l-0.103,4.98l-0.071,2.489
		c-0.021,0.832-0.054,1.661-0.084,2.491c-0.028,0.832-0.062,1.661-0.101,2.491c-0.035,0.83-0.077,1.661-0.125,2.491
		c-0.048-0.83-0.092-1.661-0.125-2.491c-0.04-0.83-0.072-1.659-0.101-2.491c-0.031-0.83-0.062-1.659-0.083-2.491l-0.072-2.489
		l-0.102-4.98l-0.058-4.74c-0.214-0.005-0.43-0.012-0.641-0.017C0.572,11.249,0.285,11.241,0,11.232v21.273
		c0,0.313,0.256,0.567,0.57,0.567h4.382c-0.018-0.259-0.037-0.521-0.051-0.787c-0.016-0.286-0.025-0.575-0.039-0.864L4.839,30.56
		c-0.002-0.108,0.082-0.195,0.188-0.198H5.03h0.008c0.413-0.013,0.825-0.011,1.239-0.013l0.619,0.002
		c0.207,0.003,0.413,0.003,0.619,0.008h0.012c0.107,0.006,0.191,0.093,0.188,0.201l-0.023,0.861
		c-0.014,0.289-0.023,0.578-0.039,0.864C7.639,32.551,7.62,32.813,7.6,33.072h20.136c-0.019-0.259-0.036-0.521-0.05-0.787
		c-0.018-0.286-0.027-0.575-0.039-0.864l-0.025-0.861c-0.003-0.108,0.083-0.195,0.189-0.198h0h0.011
		c0.413-0.013,0.827-0.011,1.238-0.013l0.619,0.002c0.206,0.003,0.414,0.003,0.619,0.008h0.013c0.107,0.006,0.191,0.093,0.188,0.201
		l-0.024,0.861c-0.013,0.289-0.022,0.578-0.039,0.864c-0.013,0.266-0.029,0.528-0.049,0.787h2.402V0H14.604z"/>
	<path fill="#10B05F" d="M14.235,25.083l-3.432,0.034l-6.3,0.018l-0.014,3.393l2.881,0.011l3.433,0.036
		c1.145,0.011,2.29,0.019,3.432,0.042l3.433,0.056c0.117,0,0.234,0.006,0.352,0.006c0.02-0.171,0.043-0.352,0.066-0.537
		c0.024-0.212,0.039-0.434,0.058-0.665c0.026-0.227,0.023-0.469,0.034-0.717c0.011-0.247,0.002-0.505,0-0.766
		c-0.003-0.307-0.023-0.627-0.046-0.952l-0.464,0.012L14.235,25.083z M11.452,26.784c-0.005,0.034,0,0.083-0.02,0.14
		c-0.012,0.062-0.042,0.127-0.079,0.206c-0.024,0.036-0.051,0.073-0.078,0.114c-0.034,0.035-0.069,0.077-0.11,0.115
		c-0.046,0.032-0.089,0.075-0.149,0.102c-0.058,0.03-0.13,0.063-0.183,0.077c-0.13,0.04-0.289,0.047-0.451,0.01
		c-0.159-0.041-0.321-0.131-0.442-0.276c-0.056-0.074-0.111-0.146-0.143-0.265c-0.019-0.052-0.037-0.114-0.037-0.14l-0.006-0.049
		l-0.002-0.026L9.75,26.779l-0.001-0.005l-0.003-0.036c0.006-0.199,0.076-0.392,0.195-0.536c0.123-0.145,0.284-0.232,0.442-0.275
		c0.042-0.014,0.088-0.016,0.131-0.021l0.063-0.008c0.018,0,0.034,0.006,0.047,0.006c0.032,0.005,0.064,0.008,0.095,0.01
		c0.059,0.003,0.076,0.019,0.114,0.026c0.137,0.035,0.244,0.108,0.332,0.175c0.041,0.041,0.076,0.082,0.11,0.116
		c0.027,0.041,0.054,0.08,0.078,0.116c0.038,0.078,0.067,0.145,0.079,0.206c0.02,0.057,0.014,0.104,0.02,0.134
		c0.002,0.034,0.005,0.052,0.005,0.052S11.454,26.753,11.452,26.784z"/>
	<path fill="#10B05F" d="M11.42,14.671c-0.011-0.028-0.019-0.059-0.037-0.088c-0.02-0.032-0.043-0.063-0.065-0.095
		c-0.028-0.03-0.063-0.057-0.094-0.086c-0.04-0.024-0.081-0.047-0.125-0.066c-0.09-0.031-0.189-0.052-0.29-0.032
		c-0.02,0.005-0.062,0.006-0.063,0.013c-0.029,0.009-0.057,0.02-0.089,0.029c-0.015,0.005-0.032,0.008-0.043,0.014l-0.027,0.021
		c-0.017,0.014-0.033,0.023-0.049,0.036c-0.077,0.06-0.13,0.135-0.17,0.208c-0.031,0.078-0.047,0.151-0.051,0.227l0,0l0.002,0.024
		l0.003,0.05c0.002,0.047,0.011,0.047,0.014,0.058c-0.002,0.02,0.021,0.062,0.034,0.102c0.041,0.072,0.093,0.147,0.169,0.208
		c0.079,0.048,0.17,0.104,0.272,0.11c0.066,0.011,0.104,0.005,0.15,0.003c0.047,0,0.093-0.024,0.14-0.034
		c0.043-0.018,0.085-0.041,0.123-0.064c0.034-0.03,0.067-0.059,0.096-0.087c0.023-0.034,0.045-0.064,0.066-0.093
		c0.018-0.032,0.026-0.063,0.037-0.09c0.027-0.055,0.021-0.104,0.029-0.134c0.003-0.033,0.007-0.05,0.007-0.05
		s-0.003-0.017-0.007-0.047C11.442,14.774,11.447,14.725,11.42,14.671z"/>
	<path fill="#10B05F" d="M10.313,14.826L10.313,14.826C10.313,14.826,10.313,14.819,10.313,14.826z"/>
	<path fill="#10B05F" d="M25.214,14.671c-0.011-0.028-0.019-0.059-0.038-0.088c-0.018-0.032-0.042-0.063-0.066-0.095
		c-0.028-0.03-0.062-0.057-0.094-0.086c-0.039-0.024-0.08-0.047-0.123-0.066c-0.091-0.031-0.188-0.052-0.291-0.032
		c-0.021,0.005-0.062,0.006-0.062,0.013c-0.029,0.009-0.061,0.02-0.089,0.029c-0.015,0.005-0.031,0.008-0.045,0.014l-0.025,0.021
		c-0.017,0.014-0.034,0.023-0.051,0.036c-0.076,0.06-0.13,0.135-0.171,0.208c-0.031,0.078-0.048,0.151-0.051,0.227l0,0l0.003,0.024
		l0.003,0.05c0,0.047,0.013,0.047,0.014,0.058c-0.001,0.02,0.021,0.062,0.031,0.102c0.041,0.072,0.095,0.147,0.171,0.208
		c0.076,0.048,0.169,0.104,0.272,0.11c0.067,0.011,0.103,0.005,0.151,0.003c0.047,0,0.093-0.024,0.14-0.034
		c0.043-0.018,0.084-0.041,0.122-0.064c0.033-0.03,0.067-0.059,0.095-0.087c0.024-0.034,0.046-0.064,0.066-0.093
		c0.019-0.032,0.026-0.063,0.038-0.09c0.026-0.055,0.021-0.104,0.03-0.134c0.003-0.033,0.006-0.05,0.006-0.05
		s-0.003-0.017-0.006-0.047C25.235,14.774,25.24,14.725,25.214,14.671z"/>
	<path fill="#10B05F" d="M31.233,12.782l-3.265,0.098l-0.196,0.004l-1.675,0.039l-1.563,0.036l-1.716,0.039l-1.181,0.02
		l-0.537,0.009l-0.988,0.015l-2.446,0.04l-0.751,0.008l-0.57,0.006c0.006,0.077,0.013,0.156,0.018,0.24
		c0.006,0.101,0.016,0.203,0.033,0.312c0.018,0.107,0.025,0.217,0.051,0.327c0.02,0.117,0.043,0.234,0.073,0.355
		c0.077,0.341,0.181,0.698,0.293,1.072c0.128,0.412,0.278,0.847,0.433,1.294l0.42,0.006c0.097,0,0.192,0.005,0.289,0.005
		c0.4,0.008,0.802,0.014,1.202,0.025c0.045,0,0.091,0.001,0.139,0.003c0.379,0.008,0.757,0.015,1.137,0.024
		c0.222,0.005,0.445,0.011,0.667,0.016c1.145,0.025,2.29,0.05,3.433,0.087c1.146,0.034,2.29,0.065,3.434,0.108
		c1.145,0.038,2.289,0.087,3.434,0.137l-0.095-2.254L31.233,12.782z M25.245,14.904c-0.006,0.03,0,0.079-0.02,0.136
		c-0.011,0.061-0.042,0.126-0.079,0.206c-0.024,0.038-0.052,0.075-0.078,0.114c-0.034,0.037-0.068,0.077-0.109,0.116
		c-0.046,0.031-0.089,0.076-0.15,0.101c-0.059,0.032-0.13,0.065-0.183,0.076c-0.13,0.046-0.289,0.047-0.451,0.014
		c-0.16-0.044-0.321-0.133-0.442-0.277c-0.055-0.078-0.11-0.149-0.143-0.264c-0.019-0.051-0.037-0.113-0.037-0.14l-0.005-0.052
		l-0.004-0.024v-0.014l-0.001-0.006l-0.003-0.038c0.008-0.194,0.074-0.386,0.194-0.532c0.122-0.143,0.283-0.232,0.443-0.276
		c0.041-0.011,0.089-0.017,0.131-0.022l0.063-0.005c0.017,0,0.032,0,0.049,0.002c0.031,0.004,0.06,0.008,0.093,0.012
		c0.059,0.003,0.077,0.015,0.116,0.025c0.133,0.036,0.241,0.107,0.33,0.176c0.041,0.038,0.073,0.082,0.108,0.114
		c0.026,0.041,0.054,0.081,0.078,0.115c0.037,0.081,0.068,0.145,0.079,0.207c0.02,0.057,0.014,0.106,0.02,0.136
		c0.003,0.032,0.006,0.049,0.006,0.049S25.248,14.871,25.245,14.904z"/>
	<path fill="#10B05F" d="M10.803,19.13l-6.3,0.021l-0.014,3.39l2.881,0.013l3.433,0.035c1.145,0.014,2.29,0.019,3.432,0.039
		l3.433,0.057c0.049,0,0.097,0.005,0.145,0.005c-0.005-0.028-0.009-0.056-0.017-0.085c-0.114-0.59-0.255-1.189-0.412-1.785
		c-0.148-0.583-0.32-1.168-0.484-1.744l-2.665,0.025L10.803,19.13z M11.452,20.844c-0.005,0.032,0,0.081-0.02,0.138
		c-0.012,0.061-0.042,0.125-0.077,0.208c-0.026,0.033-0.053,0.073-0.08,0.113c-0.034,0.033-0.069,0.078-0.11,0.116
		c-0.046,0.031-0.089,0.074-0.149,0.099c-0.058,0.033-0.13,0.065-0.182,0.078c-0.131,0.045-0.29,0.046-0.452,0.012
		c-0.159-0.044-0.321-0.132-0.442-0.278c-0.056-0.077-0.111-0.145-0.143-0.261c-0.045-0.125-0.037-0.17-0.048-0.243
		c-0.005-0.061-0.001-0.018-0.003-0.031l0.001-0.003v-0.004l0.001-0.008l0.001-0.02l0.002-0.037l0.011-0.073
		C9.765,20.6,9.785,20.555,9.8,20.51c0.028-0.094,0.083-0.173,0.139-0.25c0.124-0.142,0.285-0.23,0.444-0.275
		c0.042-0.01,0.087-0.016,0.131-0.021l0.063-0.006c0.018,0,0.032,0.004,0.047,0.005c0.032,0.004,0.064,0.007,0.093,0.01
		c0.061,0.003,0.078,0.017,0.116,0.026c0.136,0.035,0.243,0.107,0.332,0.176c0.041,0.039,0.076,0.08,0.11,0.114
		c0.027,0.04,0.054,0.08,0.078,0.115c0.038,0.08,0.067,0.147,0.079,0.207c0.02,0.056,0.014,0.104,0.02,0.137
		c0.002,0.032,0.005,0.05,0.005,0.05S11.454,20.813,11.452,20.844z"/>
	<path fill="#10B05F" d="M25.214,20.611c-0.011-0.027-0.019-0.06-0.038-0.09c-0.018-0.03-0.042-0.061-0.066-0.093
		c-0.028-0.028-0.062-0.057-0.094-0.086c-0.039-0.023-0.08-0.047-0.123-0.066c-0.091-0.029-0.189-0.05-0.292-0.031
		c-0.02,0.004-0.061,0.005-0.061,0.012c-0.031,0.01-0.061,0.018-0.089,0.028c-0.015,0.004-0.031,0.009-0.045,0.014l-0.025,0.022
		c-0.017,0.013-0.034,0.021-0.051,0.035c-0.076,0.059-0.13,0.135-0.171,0.208c-0.011,0.042-0.032,0.077-0.037,0.115
		c-0.002,0.021-0.012,0.038-0.01,0.059l-0.001,0.028l-0.003,0.014v0.008v0.003c0.006,0.061,0.012,0.133,0.021,0.134
		c-0.001,0.021,0.023,0.061,0.033,0.101c0.04,0.074,0.093,0.147,0.169,0.206c0.077,0.053,0.171,0.106,0.272,0.113
		c0.067,0.01,0.103,0.004,0.151,0.004c0.047-0.002,0.093-0.024,0.14-0.035c0.043-0.02,0.084-0.042,0.123-0.064
		c0.032-0.029,0.066-0.056,0.094-0.087c0.024-0.032,0.046-0.064,0.066-0.094c0.019-0.03,0.026-0.063,0.038-0.089
		c0.026-0.054,0.021-0.103,0.03-0.135c0.003-0.031,0.006-0.048,0.006-0.048s-0.003-0.018-0.006-0.05
		C25.235,20.717,25.24,20.666,25.214,20.611z"/>
	<path fill="#10B05F" d="M31.233,18.766l-3.265,0.097l-3.434,0.083l-1.716,0.036l-1.717,0.027l-2.57,0.045l-0.482,0.007
		c0.154,0.483,0.302,0.973,0.435,1.474c0.099,0.393,0.192,0.79,0.274,1.185c0.044,0.23,0.088,0.461,0.123,0.693
		c0.018,0.101,0.03,0.198,0.046,0.3c0.725,0.015,1.45,0.032,2.174,0.048c1.145,0.026,2.29,0.051,3.433,0.088
		c1.146,0.032,2.29,0.064,3.434,0.105c1.145,0.039,2.289,0.09,3.434,0.139l-0.095-2.253L31.233,18.766z M23.539,20.794l0.001-0.003
		v-0.004l0-0.008l0.003-0.02l0.004-0.037l0.008-0.073c0.003-0.049,0.022-0.094,0.039-0.139c0.028-0.094,0.086-0.173,0.139-0.25
		c0.121-0.142,0.283-0.23,0.443-0.275c0.04-0.01,0.089-0.016,0.131-0.021l0.063-0.006c0.017,0,0.032,0.004,0.048,0.005
		c0.031,0.004,0.06,0.007,0.092,0.01c0.06,0.003,0.077,0.017,0.116,0.026c0.134,0.035,0.242,0.107,0.332,0.176
		c0.041,0.039,0.073,0.08,0.108,0.114c0.026,0.04,0.054,0.08,0.078,0.115c0.037,0.08,0.068,0.147,0.079,0.207
		c0.02,0.056,0.014,0.104,0.02,0.137c0.003,0.032,0.006,0.05,0.006,0.05s-0.003,0.017-0.006,0.048c-0.006,0.032,0,0.081-0.02,0.138
		c-0.011,0.061-0.042,0.125-0.079,0.208c-0.024,0.033-0.052,0.073-0.078,0.113c-0.034,0.033-0.068,0.078-0.109,0.116
		c-0.046,0.031-0.089,0.074-0.15,0.099c-0.058,0.033-0.13,0.065-0.182,0.078c-0.132,0.045-0.29,0.046-0.453,0.012
		c-0.159-0.044-0.321-0.132-0.442-0.278c-0.055-0.077-0.11-0.145-0.143-0.261c-0.046-0.125-0.037-0.17-0.049-0.243
		C23.537,20.765,23.54,20.808,23.539,20.794z"/>
	<path fill="#10B05F" d="M15.845,13.099l-0.682,0.008l-0.928,0.01l-3.432,0.03l-6.3,0.021l-0.014,3.39L7.37,16.57l3.433,0.035
		c1.145,0.013,2.29,0.018,3.432,0.042l1.996,0.033c-0.091-0.365-0.174-0.721-0.242-1.073c-0.103-0.546-0.171-1.072-0.188-1.566
		c-0.003-0.149-0.001-0.295,0.003-0.437C15.81,13.43,15.823,13.261,15.845,13.099z M11.452,14.904c-0.005,0.03,0,0.079-0.02,0.136
		c-0.012,0.061-0.042,0.126-0.077,0.206c-0.026,0.038-0.053,0.075-0.08,0.114c-0.034,0.037-0.069,0.077-0.11,0.116
		c-0.046,0.031-0.089,0.076-0.149,0.101c-0.058,0.032-0.13,0.065-0.182,0.076c-0.131,0.046-0.29,0.047-0.452,0.014
		c-0.159-0.044-0.321-0.133-0.442-0.277c-0.056-0.078-0.111-0.149-0.143-0.264c-0.019-0.051-0.037-0.113-0.037-0.14l-0.006-0.052
		L9.751,14.91L9.75,14.896L9.748,14.89l-0.003-0.038c0.006-0.194,0.076-0.386,0.195-0.532c0.123-0.143,0.284-0.232,0.442-0.276
		c0.042-0.011,0.087-0.017,0.131-0.022l0.063-0.005c0.018,0,0.034,0,0.047,0.002c0.032,0.004,0.064,0.008,0.093,0.012
		c0.061,0.003,0.078,0.015,0.116,0.025c0.136,0.036,0.244,0.107,0.332,0.176c0.041,0.038,0.076,0.082,0.11,0.114
		c0.027,0.041,0.054,0.081,0.078,0.115c0.038,0.081,0.067,0.145,0.079,0.207c0.02,0.057,0.014,0.106,0.02,0.136
		c0.002,0.032,0.005,0.049,0.005,0.049S11.454,14.871,11.452,14.904z"/>
</g>
</svg>
